<svg xmlns="http://www.w3.org/2000/svg" viewBox="0 0 900 470" role="img" aria-labelledby="atlas-recurrent-tonsillitis-title atlas-recurrent-tonsillitis-desc"><title id="atlas-recurrent-tonsillitis-title">Повторные ангины: схематическая область</title><desc id="atlas-recurrent-tonsillitis-desc">Повторные эпизоды воспаления затрагивают небные миндалины. Не является изображением конкретного пациента или способом постановки диагноза.</desc><style>.small-label{font:600 13px Arial,sans-serif;letter-spacing:1.2px;fill:#537d88}.region-label{font:600 18px Arial,sans-serif;fill:#173f4c}.meta-label{font:500 14px Arial,sans-serif;fill:#63838a}</style><rect width="900" height="470" rx="30" fill="#f5faf8"/><path d="M73 56H530" stroke="#d6e8e6" stroke-width="2"/><circle cx="308" cy="242" r="171" fill="#e8f3f1" opacity=".65"/><g fill="none" stroke="#4b7d8d" stroke-width="5" stroke-linecap="round" stroke-linejoin="round">
    <path d="M184 88 Q263 54 353 97 Q407 140 420 211 Q432 310 397 400"/>
    <path d="M184 88 Q192 152 169 189 Q147 220 180 242 L226 254 Q239 315 271 392"/>
    <path d="M182 242 Q221 222 255 232 L313 240 Q341 234 353 207 L354 149"/>
    <path d="M245 143 Q279 158 310 161 Q329 162 346 152" stroke="#9bbec0" stroke-width="9"/>
    <path d="M314 180 Q329 190 332 214" stroke="#b89189" stroke-width="11"/>
    <path d="M345 197 Q367 225 361 258 Q344 279 343 297"/>
    <path d="M320 268 Q335 267 345 282" stroke="#a1857c" stroke-width="9"/>
    <path d="M333 296 Q314 317 335 370 Q352 391 378 378"/>
    <path d="M356 304 L356 393" stroke="#7daeb9" stroke-width="15"/>
    <path d="M335 343 Q354 332 376 343" stroke="#d79889" stroke-width="10"/>
  </g>
  <ellipse cx="296" cy="222" rx="15" ry="23" fill="#d9e9e9" stroke="#8cafa9" stroke-width="3"/>
  <ellipse cx="242" cy="290" rx="27" ry="21" fill="#d9e9e9" stroke="#8cafa9" stroke-width="3"/>
  <ellipse cx="273" cy="340" rx="12" ry="18" fill="#d9e9e9" stroke="#8cafa9" stroke-width="3"/>
  <text x="117" y="405" class="small-label">ГОРЛО И ГОРТАНЬ · СХЕМА СБОКУ</text><g transform="translate(298 224)"><circle r="29" fill="#e9a392" opacity=".35"/><path d="M-24 0 Q-15 -16 -7 0 T10 0 T26 0" fill="none" stroke="#c77369" stroke-width="6" stroke-linecap="round"/><circle r="7" fill="#c77369"/></g><path d="M327 213Q520 186 565 222" fill="none" stroke="#a67570" stroke-width="2.5" stroke-dasharray="5 6"/><circle cx="298" cy="224" r="4" fill="#863f4c"/><rect x="565" y="170" width="285" height="93" rx="19" fill="#fff" stroke="#d8e5df"/><text x="589" y="196" class="meta-label">ЗОНА ВНИМАНИЯ · ВОСПАЛЕНИЕ</text><text x="589" y="223" class="region-label">Небные миндалины</text><text x="566" y="433" class="meta-label">Схема для ориентации · Не показывает клинический диагноз</text></svg>